<?xml version="1.0" encoding="UTF-8"?>
<svg id="Layer_2" data-name="Layer 2" xmlns="http://www.w3.org/2000/svg" width="119.1" height="119.1" viewBox="0 0 119.1 119.1">
  <defs>
    <style>
      .cls-1 {
        fill: #d0f019;
      }
    </style>
  </defs>
  <g id="Layer_1-2" data-name="Layer 1">
    <g>
      <path class="cls-1" d="M73.17,117.9c22.92-5.28,40.82-23.67,45.37-46.86.27-1.38-.98-2.6-2.35-2.29-22.95,5.2-40.91,23.65-45.37,46.87-.27,1.38.99,2.59,2.36,2.28Z"/>
      <path class="cls-1" d="M48.06.56C24.87,5.11,6.47,23.01,1.2,45.93c-.32,1.37.9,2.63,2.28,2.36C26.69,43.83,45.15,25.87,50.34,2.92c.31-1.37-.91-2.63-2.29-2.35Z"/>
      <path class="cls-1" d="M119.08,51.08C115.39,24.63,94.46,3.71,68.02.02c-1.06-.15-2.06.56-2.23,1.61C60.57,34.02,34.42,59.5,1.69,63.68c-1.06.14-1.8,1.12-1.68,2.18,2.98,28,25.22,50.24,53.22,53.22,1.06.11,2.05-.62,2.18-1.68,4.18-32.72,29.66-58.88,62.05-64.09,1.06-.17,1.76-1.17,1.61-2.23Z"/>
    </g>
  </g>
</svg>